<svg width="20" height="22" viewBox="0 0 20 22" fill="none" xmlns="http://www.w3.org/2000/svg">
<path d="M9.86328 0.149414C10.3887 0.149414 10.898 0.331397 11.3047 0.664062L18.7158 6.70703L18.9082 6.88281C19.0897 7.06882 19.2391 7.28443 19.3506 7.52051C19.4993 7.83549 19.5768 8.18 19.5762 8.52832V19.4883C19.5761 20.7764 18.548 21.8241 17.2744 21.8242H14.2646C12.9911 21.8241 11.9629 20.7764 11.9629 19.4883V14.2988C11.9629 13.9767 11.7077 13.7199 11.3965 13.7197H8.33008C8.01937 13.7199 7.76367 13.9768 7.76367 14.2988V19.4883C7.76364 20.7764 6.73548 21.8241 5.46191 21.8242H2.45215C1.17917 21.8241 0.150424 20.7765 0.150391 19.4883V8.52832C0.149739 8.18 0.227266 7.83549 0.375977 7.52051C0.524682 7.20566 0.741473 6.92779 1.01074 6.70703L8.42188 0.664062C8.82853 0.331395 9.33788 0.149415 9.86328 0.149414ZM9.86328 1.90723C9.73443 1.90723 9.60954 1.95168 9.50977 2.0332H9.50879L2.09863 8.0752C2.0317 8.12994 1.97732 8.19914 1.94043 8.27734C1.9036 8.35548 1.88446 8.44096 1.88477 8.52734V19.4883C1.8848 19.8105 2.14089 20.0673 2.45215 20.0674H5.46191C5.77269 20.0673 6.02926 19.8104 6.0293 19.4883V14.2988C6.0293 13.0107 7.05717 11.9621 8.33008 11.9619H11.3965C12.6694 11.9621 13.6973 13.0107 13.6973 14.2988V19.4883C13.6973 19.8105 13.9534 20.0673 14.2646 20.0674H17.2744C17.5852 20.0673 17.8418 19.8104 17.8418 19.4883V8.52734C17.842 8.441 17.823 8.35542 17.7861 8.27734C17.7492 8.19926 17.6948 8.13085 17.6279 8.07617L10.2178 2.0332H10.2168C10.117 1.95168 9.99213 1.90723 9.86328 1.90723Z" fill="#0A1014" stroke="#0A1014" stroke-width="0.3"/>
</svg>
